<?xml version="1.0" encoding="UTF-8"?>
<svg width="16px" height="16px" viewBox="0 0 16 16" version="1.1" xmlns="http://www.w3.org/2000/svg" xmlns:xlink="http://www.w3.org/1999/xlink">
    <!-- Generator: Sketch 48.1 (47250) - http://www.bohemiancoding.com/sketch -->
    <title>logo-symbol-panel</title>
    <desc>Created with Sketch.</desc>
    <defs></defs>
    <g id="Page-1" stroke="none" stroke-width="1" fill="none" fill-rule="evenodd">
        <g id="logo-symbol-panel" fill="#A0A5AA" fill-rule="nonzero">
            <g id="Vector">
                <g id="path0_fill-link">
                    <path d="M11.5354154,0.809424675 C7.55360724,-1.10579728 2.7432913,0.494592157 0.819170769,4.37750512 C-1.13166757,8.26038374 0.525209128,12.9828679 4.48034334,14.898119 C5.62946479,15.4490597 6.83204378,15.7114159 8.03463007,15.7114159 C8.14151591,15.8687857 8.32854787,16.0000004 8.54239262,16.0000004 C8.88978988,16.0000004 9.15704102,15.7376442 9.15704102,15.3966031 C9.15704102,15.0554889 8.88978988,14.7931327 8.54239262,14.7931327 C8.32854787,14.7931327 8.14151591,14.898119 8.03463007,15.0817172 C6.93893693,15.0817172 5.81653328,14.8455894 4.77430498,14.3471053 C1.11313241,12.5893701 -0.383402371,8.23415543 1.40709405,4.66609691 C3.19759632,1.09801646 7.60701363,-0.371191972 11.2414976,1.38661556 C14.6888766,3.03947404 16.2120912,7.02732436 14.8491688,10.4904477 C14.555251,10.516676 14.3147396,10.7790322 14.3147396,11.0939181 C14.3147396,11.4349592 14.5819907,11.6973153 14.929388,11.6973153 C15.2767853,11.6973153 15.5440364,11.4349592 15.5440364,11.0939181 C15.5440364,10.9627034 15.5172967,10.8577902 15.4371506,10.7790322 C16.9603652,6.97485312 15.303525,2.61969686 11.5354154,0.809424675 Z" id="path0_fill"></path>
                </g>
            </g>
            <g id="Vector" transform="translate(3.945205, 3.652968)">
                <g id="path1_fill-link" transform="translate(0.054064, 0.068676)">
                    <path d="M0.614648402,5.32558174 C0.267238721,5.32558174 0,5.5879379 0,5.92900091 C0,6.24383562 0.267238721,6.5324274 0.587925479,6.5324274 C0.988785388,7.08338265 1.52325845,7.52942466 2.13790685,7.84423744 C2.72583744,8.13282192 3.36720365,8.26396347 3.98185936,8.26396347 C5.53184292,8.26396347 7.02837626,7.42443836 7.77665753,5.95524384 C8.28442009,4.9582758 8.33782648,3.8563726 7.99042922,2.80693333 C7.61629224,1.75750137 6.86803288,0.917947032 5.85252968,0.419468858 C3.76806575,-0.577494795 1.25602192,0.262053699 0.213790685,2.30844932 L0.133618995,2.4396347 L0.160343379,2.4396347 C0.0534478174,2.64951963 -0.0267239452,2.93811142 0.187067032,3.04305388 L2.40515068,3.88260822 C2.40515068,3.96131507 2.37842557,4.04002192 2.37842557,4.11872877 C2.37842557,4.98451142 3.09996712,5.69288037 3.98185936,5.69288037 C4.86374429,5.69288037 5.58528584,4.98451142 5.58528584,4.11872877 C5.58528584,3.25294612 4.86374429,2.54457717 3.98185936,2.54457717 C3.447379,2.54457717 2.96634886,2.80693333 2.67238721,3.20047489 L0.855167123,2.51834155 C1.28274703,1.73126575 1.97756347,1.12783927 2.83273059,0.839240183 C3.71461553,0.550647671 4.6766758,0.603119635 5.53184292,0.996661187 C7.26889498,1.83620822 7.99042922,3.90884384 7.13526941,5.61417352 C6.73441461,6.45372055 6.01287306,7.05714703 5.10425571,7.37198174 C4.22237078,7.66056621 3.2603105,7.60810959 2.40515068,7.21456073 C1.89739543,6.97844018 1.46981553,6.61113425 1.12240365,6.16512877 C1.14912877,6.08642192 1.17584658,6.00771507 1.17584658,5.92900091 C1.2292968,5.61417352 0.93533516,5.32558174 0.614648402,5.32558174 Z" id="path1_fill"></path>
                </g>
            </g>
            <g id="Vector" transform="translate(1.753425, 1.461187)">
                <g id="path2_fill-link" transform="translate(0.039452, 0.030393)">
                    <path d="M11.613516,3.04336073 C11.613516,2.70229772 11.3462648,2.43993425 10.9988676,2.43993425 C10.6513973,2.43993425 10.3841461,2.70229772 10.3841461,3.04336073 C10.3841461,3.35819543 10.6513973,3.6205516 10.9721279,3.64678721 C11.8806941,5.1947032 11.9609132,7.10992511 11.1591598,8.73658447 C10.491105,10.0483653 9.36869406,11.019105 7.97903196,11.4650594 C6.58939178,11.9373151 5.09285845,11.8324018 3.7833863,11.2027032 C1.05754886,9.89092237 -0.0648509954,6.63767671 1.27134247,3.96162192 C2.07305936,2.3612274 3.64976804,1.2593242 5.41354521,0.996960731 C5.52043836,1.12814612 5.68078174,1.20685297 5.86785023,1.20685297 C6.2152621,1.20685297 6.48249863,0.944489498 6.48249863,0.603425023 C6.48249863,0.262359087 6.2152621,-5.00409863e-08 5.86785023,-5.00409863e-08 C5.62733151,-5.00409863e-08 5.44027032,0.131179543 5.33336986,0.31483032 C3.32908128,0.603425023 1.538579,1.86275068 0.62996968,3.67302283 C-0.0915747945,5.14223196 -0.198470137,6.79509041 0.336007306,8.3430137 C0.870487671,9.89092237 1.99288402,11.1240183 3.46269954,11.8586301 C4.34459178,12.2784292 5.27992694,12.4882557 6.18853699,12.4882557 C8.48679452,12.4882557 10.7048767,11.2289315 11.7738082,9.07762557 C12.6824475,7.2411032 12.6022283,5.06352511 11.5600365,3.3057242 C11.5867763,3.22701005 11.613516,3.1483032 11.613516,3.04336073 Z" id="path2_fill"></path>
                </g>
            </g>
        </g>
    </g>
</svg>