<svg xmlns="http://www.w3.org/2000/svg" xml:space="preserve" style="fill-rule:evenodd;clip-rule:evenodd;stroke-linejoin:round;stroke-miterlimit:2" viewBox="13.4 8.8 573.2 573.2">
  <path fill="#A0A5AA" d="M195.113 411.033c45.835 46.692 119.124 58.488 178.387 24.273 70.262-40.566 94.371-130.544 53.806-200.806-40.566-70.262-130.544-94.371-200.806-53.806-19.873 11.474-36.055 26.899-48.124 44.715l64.722 33.186c22.201-25.593 59.796-33.782 91.279-17.639 37.002 18.973 51.64 64.418 32.667 101.421-18.973 37.002-64.418 51.64-101.421 32.667-31.483-16.143-46.776-51.45-38.951-84.415l-81.702-41.892c-8.838-4.532-12.335-15.367-7.814-24.211 15.514-30.346 39.658-56.715 71.344-75.009 87.469-50.5 199.482-20.486 249.983 66.983 50.5 87.469 20.486 199.482-66.983 249.983-75.235 43.437-168.63 27.307-225.419-33.717-17.809 3.778-36.797-4.055-46.387-20.666-11.922-20.648-4.837-47.091 15.812-59.012 20.648-11.922 47.091-4.836 59.012 15.812 7.77 13.458 7.466 29.377.595 42.133Z"/>
  <path fill="#A0A5AA" d="M262.237 72.985C148.8 91.101 62 189.494 62 308c0 131.356 106.644 238 238 238s238-106.644 238-238c0-34.059-7.168-66.458-20.08-95.766-15.121.99-30.323-6.014-39.137-19.626-12.959-20.014-7.231-46.783 12.783-59.742 20.014-12.958 46.783-7.231 59.742 12.783 10.095 15.592 8.849 35.284-1.657 49.352C565.288 229.461 574 267.721 574 308c0 151.225-122.775 274-274 274S26 459.225 26 308C26 170.539 127.443 56.584 259.487 36.98 265.594 20.533 281.438 8.8 300 8.8c23.843 0 43.2 19.357 43.2 43.2 0 23.843-19.357 43.2-43.2 43.2-16.229 0-30.38-8.968-37.763-22.215Z"/>
</svg>
